<svg xmlns="http://www.w3.org/2000/svg" id="Layer_1" data-name="Layer 1" viewBox="0 0 220 160"><defs><style>.cls-1{fill:#9f9fad}.cls-2{fill:#5a4a9e}.cls-3{fill:#6a57a5}.cls-4{fill:#8f8f9d}.cls-5{fill:none;stroke:#80808e;stroke-linecap:round;stroke-linejoin:round;stroke-width:1.6px}.cls-6{fill:#231f20;opacity:.4}.cls-7{fill:#ee3389}.cls-8{fill:#7661aa}</style></defs><title>Sync</title><path d="M119.16,122.69v4.81H19.76v-4.81l12.83-3.21h72.15Z" class="cls-1"/><rect width="89.79" height="67.34" x="24.57" y="55.35" class="cls-1" rx="3"/><path d="M79.08,65l-49.7,49.7a1.61,1.61,0,0,0,1.6,1.61h77a1.62,1.62,0,0,0,1.61-1.61V65Z" class="cls-2"/><polygon points="29.38 64.97 29.38 114.67 79.08 64.97 29.38 64.97" class="cls-3"/><path d="M107.94,60.16H31a1.6,1.6,0,0,0-1.6,1.6V65h80.17V61.76A1.61,1.61,0,0,0,107.94,60.16Z" class="cls-2"/><path d="M108.74,121.09H30.18a.81.81,0,0,1,0-1.61h78.56a.81.81,0,1,1,0,1.61Z" class="cls-4"/><line x1="63.61" x2="74.83" y1="124.18" y2="124.18" class="cls-5"/><path d="M114.35,127.35H102.2V71.64a5.53,5.53,0,0,1,5.52-5.53h6.63Z" class="cls-6"/><path d="M200.24,134.72v4.81h-99.4v-4.81l12.82-3.21h72.15Z" class="cls-1"/><rect width="89.79" height="67.34" x="105.65" y="67.38" class="cls-1" rx="3"/><path d="M160.16,77l-49.71,49.7a1.61,1.61,0,0,0,1.61,1.6h77a1.6,1.6,0,0,0,1.6-1.6V77Z" class="cls-2"/><polygon points="110.45 77 110.45 126.7 160.16 77 110.45 77" class="cls-3"/><path d="M189,72.19h-77a1.61,1.61,0,0,0-1.61,1.6V77h80.17V73.79A1.6,1.6,0,0,0,189,72.19Z" class="cls-2"/><path d="M189.82,133.11H111.26a.8.8,0,1,1,0-1.6h78.56a.8.8,0,0,1,0,1.6Z" class="cls-4"/><line x1="144.69" x2="155.91" y1="136.2" y2="136.2" class="cls-5"/><path d="M136.85,50l-3-.55a3,3,0,0,0-3.51,2.37l-.27,1.45c-1.59,8.36-9.86,14.42-19.66,14.42a21,21,0,0,1-15.93-6.89H103a3,3,0,0,0,3-3v-3a3,3,0,0,0-3-3H84.86a3,3,0,0,0-3,3V73.64a3,3,0,0,0,3,3h3a3,3,0,0,0,3-3V69.72a30.8,30.8,0,0,0,19.57,6.87c14.15,0,26.15-9.11,28.54-21.66l.27-1.45A2.94,2.94,0,0,0,136.85,50Z" class="cls-7"/><path d="M84.06,47l3,.54a3.41,3.41,0,0,0,.55,0,3,3,0,0,0,3-2.41l.27-1.45h0c1.59-8.36,9.86-14.42,19.65-14.42a21,21,0,0,1,15.94,6.89H117.9a3,3,0,0,0-3,3v3a3,3,0,0,0,3,3h18.15a3,3,0,0,0,3-3V23.43a3,3,0,0,0-3-3h-3a3,3,0,0,0-3,3v3.92a30.82,30.82,0,0,0-19.58-6.88c-14.14,0-26.14,9.11-28.53,21.67l-.27,1.45A3,3,0,0,0,84.06,47Z" class="cls-8"/></svg>